# xmcd
#
# Track frame offsets:
#	150
#	19140
#	37109
#	54353
#	71162
#	85101
#	104829
#	124069
#	144169
#	162277
#	181716
#
# Disc length: 2689 seconds
#
# Revision: 3
# Processed by: cddbd v1.5.2PL0 Copyright (c) Steve Scherf et al.
# Submitted via: dBpowerAMP V4.0
#
DISCID=920a7f0b
DTITLE=Keith Anderson - Three Chord Country and American Rock and R
DYEAR=2005
DGENRE=Country
TTITLE0=Three Chord Country and American Rock and Roll 
TTITLE1=Podunk 
TTITLE2=Wrap Around 
TTITLE3=XXL 
TTITLE4=Pickin' Wildflowers 
TTITLE5=Every Time I Hear Your Name 
TTITLE6=Stick It 
TTITLE7=Plan B 
TTITLE8=Lazy With Your Love 
TTITLE9=The Clothes Don't Make the Man 
TTITLE10=I'll Know When I Get There 
EXTD=
EXTT0=
EXTT1=
EXTT2=
EXTT3=
EXTT4=
EXTT5=
EXTT6=
EXTT7=
EXTT8=
EXTT9=
EXTT10=
PLAYORDER=
